<svg xmlns="http://www.w3.org/2000/svg" width="1200" height="230" viewBox="0 0 1200 230" role="img" aria-labelledby="title desc">
  <title id="title">技术栈</title>
  <desc id="desc">GitHub 原创仓库语言数据与主要开发技术。</desc>
  <defs><style>.sans{font-family:-apple-system,BlinkMacSystemFont,'Segoe UI','PingFang SC','Microsoft YaHei',sans-serif}</style></defs>
  <rect width="1200" height="150" rx="28" fill="#111827"/>
  <text class="sans" x="60" y="62" font-size="32" font-weight="700" fill="#F8FAFC">技术栈</text>
  <text class="sans" x="60" y="102" font-size="18" fill="#CBD5E1">原创仓库语言数据：C++ · C · Python · HTML · TypeScript</text>
  <rect x="950" y="66" width="150" height="8" rx="4" fill="#22D3EE"/>
  <g transform="translate(250,178)"><rect width="72" height="34" rx="3" fill="#60A5FA"/><text class="sans" x="36" y="22" text-anchor="middle" font-size="16" font-weight="600" fill="#111827">C++</text></g><g transform="translate(334,178)"><rect width="72" height="34" rx="3" fill="#38BDF8"/><text class="sans" x="36" y="22" text-anchor="middle" font-size="16" font-weight="600" fill="#111827">Qt</text></g><g transform="translate(418,178)"><rect width="106" height="34" rx="3" fill="#F59E0B"/><text class="sans" x="53" y="22" text-anchor="middle" font-size="16" font-weight="600" fill="#111827">Python</text></g><g transform="translate(536,178)"><rect width="93" height="34" rx="3" fill="#34D399"/><text class="sans" x="46" y="22" text-anchor="middle" font-size="16" font-weight="600" fill="#111827">CMake</text></g><g transform="translate(641,178)"><rect width="93" height="34" rx="3" fill="#64748B"/><text class="sans" x="46" y="22" text-anchor="middle" font-size="16" font-weight="600" fill="#111827">Linux</text></g><g transform="translate(746,178)"><rect width="119" height="34" rx="3" fill="#A78BFA"/><text class="sans" x="60" y="22" text-anchor="middle" font-size="16" font-weight="600" fill="#111827">VS Code</text></g><g transform="translate(877,178)"><rect width="72" height="34" rx="3" fill="#22D3EE"/><text class="sans" x="36" y="22" text-anchor="middle" font-size="16" font-weight="600" fill="#111827">Git</text></g>
</svg>
